<?xml version="1.0" encoding="UTF-8" standalone="no"?>
<!-- Created with Inkscape (http://www.inkscape.org/) -->

<svg
   width="210mm"
   height="297mm"
   viewBox="0 0 210 297"
   version="1.1"
   id="svg145993"
   inkscape:version="1.2.2 (b0a8486541, 2022-12-01)"
   sodipodi:docname="employee_back_down.svg"
   xmlns:inkscape="http://www.inkscape.org/namespaces/inkscape"
   xmlns:sodipodi="http://sodipodi.sourceforge.net/DTD/sodipodi-0.dtd"
   xmlns="http://www.w3.org/2000/svg"
   xmlns:svg="http://www.w3.org/2000/svg">
  <sodipodi:namedview
     id="namedview145995"
     pagecolor="#ffffff"
     bordercolor="#000000"
     borderopacity="0.25"
     inkscape:showpageshadow="2"
     inkscape:pageopacity="0.0"
     inkscape:pagecheckerboard="0"
     inkscape:deskcolor="#d1d1d1"
     inkscape:document-units="mm"
     showgrid="false"
     inkscape:zoom="0.72515432"
     inkscape:cx="289.59353"
     inkscape:cy="128.93807"
     inkscape:window-width="1920"
     inkscape:window-height="1001"
     inkscape:window-x="-9"
     inkscape:window-y="-9"
     inkscape:window-maximized="1"
     inkscape:current-layer="layer1" />
  <defs
     id="defs145990">
    <clipPath
       clipPathUnits="userSpaceOnUse"
       id="clipPath670">
      <path
         id="path672"
         style="fill:#ff0000;fill-opacity:1;fill-rule:nonzero;stroke:none;stroke-width:0.264583"
         d="m 55.127385,247.33374 v 64.63999 h 92.675995 v -64.63999 z m 90.823395,53.53884 c 0.0215,0 0.0456,0.006 0.0667,0.0124 0.036,0.0127 0.0565,0.019 0.0915,0.0362 0.0707,0.0346 0.1309,0.0855 0.1912,0.13539 0.0809,0.0635 0.16604,0.12477 0.26149,0.16433 0.0145,-0.005 0.0305,-0.006 0.0491,-0.003 0.0121,0.003 0.0241,0.006 0.0341,0.0135 0.0127,0.01 0.0365,0.0212 0.0315,0.0362 -0.005,0.0137 -0.0129,0.0254 -0.0227,0.0362 0.026,0.0188 0.0512,0.0389 0.0765,0.0589 0.0391,0.0381 0.109,0.10017 0.0925,0.16536 -0.005,0.0212 -0.0161,0.0437 -0.0336,0.0568 0.062,0.0439 0.12327,0.0888 0.17984,0.13955 0.0199,-0.0458 0.0446,-0.0941 0.0765,-0.10904 0.0202,-0.009 0.0436,-0.008 0.0656,-0.0119 0.0202,0.0109 0.0444,0.0167 0.061,0.0326 0.0575,0.0549 0.0575,0.1669 0.0393,0.2377 -0.004,0.0172 -0.0121,0.0333 -0.0181,0.0501 -0.008,0.014 -0.0127,0.0299 -0.0227,0.0424 -0.0385,0.0478 -0.0926,0.065 -0.14882,0.0352 -0.0349,-0.0185 -0.0443,-0.0395 -0.0651,-0.0698 -0.011,-0.023 -0.0198,-0.0615 -0.0222,-0.0971 -0.0143,-0.005 -0.0293,-0.0138 -0.0444,-0.0265 -0.10142,-0.085 -0.21292,-0.15672 -0.31936,-0.23514 -0.0602,-0.0462 -0.12046,-0.093 -0.17466,-0.14623 -0.0253,-0.0249 -0.0635,-0.0642 -0.0806,-0.0966 -0.009,-0.0172 -0.0137,-0.0365 -0.0196,-0.0548 0.008,-0.019 0.009,-0.0438 0.0186,-0.0615 v 0 c -0.0289,-0.0206 -0.0575,-0.042 -0.0858,-0.0641 -0.0346,-0.0272 -0.0675,-0.0574 -0.10335,-0.0832 -0.0174,0.0161 -0.0432,0.0228 -0.0641,0.0305 -0.0594,0.0143 -0.12683,0.0257 -0.18603,0.003 -0.0104,-0.004 -0.0195,-0.0111 -0.0295,-0.0161 -0.009,-0.0167 -0.0314,-0.0315 -0.0274,-0.0501 0.007,-0.0286 0.0315,-0.0509 0.0543,-0.0692 0.006,-0.005 0.0147,-0.006 0.0232,-0.006 -0.002,-0.005 -0.003,-0.0114 -0.003,-0.0169 0.007,-0.0507 0.0302,-0.0662 0.0579,-0.0677 z m -0.0424,0.11266 c -0.005,0.003 -0.005,0.003 0.003,0.004 -0.001,0 -0.002,-0.003 -0.003,-0.004 z m 0.54777,0.33591 c 0.007,0.007 0.013,0.0138 0.0186,0.019 0.0146,0.0143 0.0296,0.0284 0.045,0.0419 -0.003,-0.0101 -0.005,-0.0204 -0.007,-0.0305 -0.0153,-0.009 -0.0308,-0.0177 -0.0465,-0.0259 -0.003,-0.003 -0.006,-0.003 -0.01,-0.005 z m 0.24184,0.17621 c 7.9e-4,0.005 0.003,0.0138 0.007,0.0284 0.001,0 0.003,0.003 0.004,0.003 h 5.3e-4 c 0.002,-1.1e-4 0.004,0 0.004,-0.003 -0.003,-0.0106 -0.008,-0.0204 -0.015,-0.0289 z m 0.41703,0.20876 c -0.003,0 -0.007,0.003 -0.008,0.004 -0.002,0.003 -0.004,0.006 -0.007,0.01 0.001,0.003 0.002,0.003 0.003,0.004 0.002,0 0.004,-0.003 0.006,-0.004 0.003,-0.004 0.0103,-0.008 0.009,-0.0135 h -0.003 z" />
    </clipPath>
  </defs>
  <g
     inkscape:label="Layer 1"
     inkscape:groupmode="layer"
     id="layer1">
    <path
       id="path204"
       style="fill:#00112b;stroke-width:0.264583"
       d="m 101.46512,247.33374 v 5.2e-4 a 46.337837,46.337837 0 0 0 -46.337736,46.33825 46.337837,46.337837 0 0 0 0.118856,3.17294 c 1.025384,0.0661 2.053345,0.0722 3.080432,0.0837 1.359944,0.014 2.71984,0.0182 4.079855,0.0222 1.116989,0.003 2.234224,0.004 3.351216,0.004 1.802001,5.2e-4 3.603873,4.4e-4 5.405872,5.1e-4 2.388593,7e-5 4.777394,-10e-6 7.165971,0 3.278794,1e-5 6.557813,0 9.836609,0 h 8.156608 c 4.186987,0.002 8.374087,-0.0154 12.560987,0.0315 5.24308,0.0876 10.48687,0.17368 15.73031,0.23668 3.46511,0.042 6.93042,0.0657 10.39575,0.0791 3.45182,0.0134 6.90359,0.013 10.35544,0.015 0.45303,2.3e-4 0.90606,4.6e-4 1.35909,5.1e-4 -6.9e-4,-0.009 -4e-4,-0.0191 5.1e-4,-0.0279 4.9e-4,-0.004 0.005,-0.004 0.0109,-0.002 0.008,-0.007 0.0213,4e-4 0.0326,0.002 h 5.2e-4 c 0.028,-3e-5 0.0558,6e-5 0.0837,0 0.006,-2e-5 0.0117,3e-5 0.0176,0 0.001,-0.009 0.002,-0.0185 0.006,-0.0269 -10e-4,-0.006 -0.002,-0.0125 -0.003,-0.0186 -2.3e-4,-0.005 0.007,-0.002 0.0129,5.2e-4 8.6e-4,-9.7e-4 0.002,-0.002 0.003,-0.003 0.01,-0.009 0.0272,-2.4e-4 0.0408,-5.2e-4 0.019,-4.6e-4 0.0379,-7.5e-4 0.0568,-0.001 0.13244,-10e-4 0.26497,-0.003 0.3974,-0.005 0.0774,-9e-4 0.15482,-0.005 0.23202,-0.0114 0.0215,-0.002 0.0353,0.006 0.0413,0.0155 a 46.337837,46.337837 0 0 0 0.14573,-3.56825 46.337837,46.337837 0 0 0 -46.33826,-46.33826 z m 44.45724,53.6329 c 0.0142,0.008 0.0277,0.0179 0.0419,0.0264 4.2e-4,-0.009 0.001,-0.0179 0.002,-0.0264 z m 0.62218,0.32556 c -0.005,2e-5 -0.01,4.3e-4 -0.015,5.2e-4 -0.0265,0.007 -0.0528,0.0143 -0.0791,0.0222 0.003,0.002 0.007,0.004 0.0103,0.007 0.0481,-0.006 0.0863,-0.0162 0.11627,-0.0289 -0.0109,-1.8e-4 -0.0219,-5.6e-4 -0.032,-5.2e-4 z m 0.52659,0.41083 c -0.0481,0.0156 -0.0959,0.0311 -0.14418,0.046 0.0385,0.0384 0.0751,0.0781 0.11317,0.11679 a 46.337837,46.337837 0 0 0 0.031,-0.16278 z m -88.099019,10.13685 a 46.337837,46.337837 0 0 0 0.05788,0.13384 c 0.009,-0.0428 0.01835,-0.0857 0.02842,-0.12867 -0.02876,-0.002 -0.05754,-0.003 -0.0863,-0.005 z"
       clip-path="url(#clipPath670)"
       transform="matrix(0.97112757,0,0,0.98206258,-53.535723,-211.37771)" />
    <ellipse
       style="fill:#ffb380;stroke:none;stroke-width:0.48829"
       id="path726"
       cx="45.901676"
       cy="24.554632"
       rx="24.281223"
       ry="24.554632" />
    <path
       id="rect3687"
       style="fill:#002255;stroke:#1a1a1a;stroke-width:0.488289"
       d="m 24.569235,36.775113 c 7.014803,11.82594 35.324565,12.74857 42.249181,0.73588 2.356295,1.04437 7.144354,4.4391 11.4718,9.23663 -17.741229,14.0222 -52.105439,12.15393 -64.823531,-1.80975 3.192877,-3.24256 6.98594,-6.07521 11.10255,-8.16276 z"
       sodipodi:nodetypes="ccccc" />
  </g>
</svg>
